HIERARCHY
ROOT Hips
{
	OFFSET 0 0 0
	CHANNELS 6 Xposition Yposition Zposition Yrotation Xrotation Zrotation
	JOINT Spine
	{
		OFFSET -0 8.00685 -2.55218
		CHANNELS 3 Yrotation Xrotation Zrotation
		JOINT Spine1
		{
			OFFSET -0 7.45793 0
			CHANNELS 3 Yrotation Xrotation Zrotation
			JOINT Spine2
			{
				OFFSET -0 7.45793 0
				CHANNELS 3 Yrotation Xrotation Zrotation
				JOINT Spine3
				{
					OFFSET -0 7.45793 0
					CHANNELS 3 Yrotation Xrotation Zrotation
					JOINT Neck
					{
						OFFSET -0 14.9948 3.55218
						CHANNELS 3 Yrotation Xrotation Zrotation
						JOINT Head
						{
							OFFSET -0 10.0086 0
							CHANNELS 3 Yrotation Xrotation Zrotation
							End Site
							{
								OFFSET 0 15 0
							}
						}
					}
					JOINT LeftShoulder
					{
						OFFSET 1.66809 3.17829 3.33619
						CHANNELS 3 Yrotation Xrotation Zrotation
						JOINT LeftArm
						{
							OFFSET 18.653 0 0
							CHANNELS 3 Yrotation Xrotation Zrotation
							JOINT LeftForeArm
							{
								OFFSET 22.9554 0 0
								CHANNELS 3 Yrotation Xrotation Zrotation
								JOINT LeftHand
								{
									OFFSET 21.8677 0 0
									CHANNELS 3 Yrotation Xrotation Zrotation
									JOINT LeftHandThumb1
									{
										OFFSET 4.74436 0 2.66649
										CHANNELS 3 Yrotation Xrotation Zrotation
										JOINT LeftHandThumb2
										{
											OFFSET 3 0 1
											CHANNELS 3 Yrotation Xrotation Zrotation
											JOINT LeftHandThumb3
											{
												OFFSET 2.1 0 0
												CHANNELS 3 Yrotation Xrotation Zrotation
												JOINT LeftHandThumb4
												{
													OFFSET 1.305 0 0
													CHANNELS 3 Yrotation Xrotation Zrotation
													End Site
													{
														OFFSET -0 0 0
													}
												}
											}
										}
									}
									JOINT LeftHandIndex1
									{
										OFFSET 8.93865 0 3.46871
										CHANNELS 3 Yrotation Xrotation Zrotation
										JOINT LeftHandIndex2
										{
											OFFSET 3.5 0 0
											CHANNELS 3 Yrotation Xrotation Zrotation
											JOINT LeftHandIndex3
											{
												OFFSET 2.45 0 0
												CHANNELS 3 Yrotation Xrotation Zrotation
												JOINT LeftHandIndex4
												{
													OFFSET 1.5225 0 0
													CHANNELS 3 Yrotation Xrotation Zrotation
													End Site
													{
														OFFSET -0 0 0
													}
												}
											}
										}
									}
									JOINT LeftHandMiddle1
									{
										OFFSET 8.93983 0 1.07882
										CHANNELS 3 Yrotation Xrotation Zrotation
										JOINT LeftHandMiddle2
										{
											OFFSET 4.6 0 0
											CHANNELS 3 Yrotation Xrotation Zrotation
											JOINT LeftHandMiddle3
											{
												OFFSET 3.22 0 0
												CHANNELS 3 Yrotation Xrotation Zrotation
												JOINT LeftHandMiddle4
												{
													OFFSET 2.001 0 0
													CHANNELS 3 Yrotation Xrotation Zrotation
													End Site
													{
														OFFSET -0 0 0
													}
												}
											}
										}
									}
									JOINT LeftHandRing1
									{
										OFFSET 8.64101 0 -1.31106
										CHANNELS 3 Yrotation Xrotation Zrotation
										JOINT LeftHandRing2
										{
											OFFSET 3.75 0 0
											CHANNELS 3 Yrotation Xrotation Zrotation
											JOINT LeftHandRing3
											{
												OFFSET 2.625 0 0
												CHANNELS 3 Yrotation Xrotation Zrotation
												JOINT LeftHandRing4
												{
													OFFSET 1.63125 0 0
													CHANNELS 3 Yrotation Xrotation Zrotation
													End Site
													{
														OFFSET -0 0 0
													}
												}
											}
										}
									}
									JOINT LeftHandPinky1
									{
										OFFSET 8.04219 0 -3.70094
										CHANNELS 3 Yrotation Xrotation Zrotation
										JOINT LeftHandPinky2
										{
											OFFSET 2.875 0 0
											CHANNELS 3 Yrotation Xrotation Zrotation
											JOINT LeftHandPinky3
											{
												OFFSET 2.0125 0 0
												CHANNELS 3 Yrotation Xrotation Zrotation
												JOINT LeftHandPinky4
												{
													OFFSET 1.25062 0 0
													CHANNELS 3 Yrotation Xrotation Zrotation
													End Site
													{
														OFFSET -0 0 0
													}
												}
											}
										}
									}
								}
							}
						}
					}
					JOINT RightShoulder
					{
						OFFSET -1.66809 3.17829 3.33619
						CHANNELS 3 Yrotation Xrotation Zrotation
						JOINT RightArm
						{
							OFFSET -18.653 0 0
							CHANNELS 3 Yrotation Xrotation Zrotation
							JOINT RightForeArm
							{
								OFFSET -22.9554 0 0
								CHANNELS 3 Yrotation Xrotation Zrotation
								JOINT RightHand
								{
									OFFSET -21.8677 0 0
									CHANNELS 3 Yrotation Xrotation Zrotation
									JOINT RightHandThumb1
									{
										OFFSET -4.93523 0 1.98499
										CHANNELS 3 Yrotation Xrotation Zrotation
										JOINT RightHandThumb2
										{
											OFFSET -3 0 1
											CHANNELS 3 Yrotation Xrotation Zrotation
											JOINT RightHandThumb3
											{
												OFFSET -2.1 0 0
												CHANNELS 3 Yrotation Xrotation Zrotation
												JOINT RightHandThumb4
												{
													OFFSET -1.305 0 0
													CHANNELS 3 Yrotation Xrotation Zrotation
													End Site
													{
														OFFSET -0 0 0
													}
												}
											}
										}
									}
									JOINT RightHandIndex1
									{
										OFFSET -9.43254 0 2.90277
										CHANNELS 3 Yrotation Xrotation Zrotation
										JOINT RightHandIndex2
										{
											OFFSET -3.5 0 0
											CHANNELS 3 Yrotation Xrotation Zrotation
											JOINT RightHandIndex3
											{
												OFFSET -2.45 0 0
												CHANNELS 3 Yrotation Xrotation Zrotation
												JOINT RightHandIndex4
												{
													OFFSET -1.5225 0 0
													CHANNELS 3 Yrotation Xrotation Zrotation
													End Site
													{
														OFFSET -0 0 0
													}
												}
											}
										}
									}
									JOINT RightHandMiddle1
									{
										OFFSET -9.35706 0 0.88564
										CHANNELS 3 Yrotation Xrotation Zrotation
										JOINT RightHandMiddle2
										{
											OFFSET -4.6 0 0
											CHANNELS 3 Yrotation Xrotation Zrotation
											JOINT RightHandMiddle3
											{
												OFFSET -3.22 0 0
												CHANNELS 3 Yrotation Xrotation Zrotation
												JOINT RightHandMiddle4
												{
													OFFSET -2.001 0 0
													CHANNELS 3 Yrotation Xrotation Zrotation
													End Site
													{
														OFFSET -0 0 0
													}
												}
											}
										}
									}
									JOINT RightHandRing1
									{
										OFFSET -8.98158 0 -1.13149
										CHANNELS 3 Yrotation Xrotation Zrotation
										JOINT RightHandRing2
										{
											OFFSET -3.75 0 0
											CHANNELS 3 Yrotation Xrotation Zrotation
											JOINT RightHandRing3
											{
												OFFSET -2.625 0 0
												CHANNELS 3 Yrotation Xrotation Zrotation
												JOINT RightHandRing4
												{
													OFFSET -1.63125 0 0
													CHANNELS 3 Yrotation Xrotation Zrotation
													End Site
													{
														OFFSET -0 0 0
													}
												}
											}
										}
									}
									JOINT RightHandPinky1
									{
										OFFSET -8.3061 0 -3.14863
										CHANNELS 3 Yrotation Xrotation Zrotation
										JOINT RightHandPinky2
										{
											OFFSET -2.875 0 0
											CHANNELS 3 Yrotation Xrotation Zrotation
											JOINT RightHandPinky3
											{
												OFFSET -2.0125 0 0
												CHANNELS 3 Yrotation Xrotation Zrotation
												JOINT RightHandPinky4
												{
													OFFSET -1.25062 0 0
													CHANNELS 3 Yrotation Xrotation Zrotation
													End Site
													{
														OFFSET -0 0 0
													}
												}
											}
										}
									}
								}
							}
						}
					}
				}
			}
		}
	}
	JOINT LeftUpLeg
	{
		OFFSET 10.0086 -3.33619 3
		CHANNELS 3 Yrotation Xrotation Zrotation
		JOINT LeftLeg
		{
			OFFSET -0 -43.585 2.33533
			CHANNELS 3 Yrotation Xrotation Zrotation
			JOINT LeftFoot
			{
				OFFSET -0 -36.8654 -2.33533
				CHANNELS 3 Yrotation Xrotation Zrotation
				JOINT LeftToeBase
				{
					OFFSET -0 -9.43469 9.49123
					CHANNELS 3 Yrotation Xrotation Zrotation
					End Site
					{
						OFFSET 0 0 5
					}
				}
			}
		}
	}
	JOINT RightUpLeg
	{
		OFFSET -10.0086 -3.33619 3
		CHANNELS 3 Yrotation Xrotation Zrotation
		JOINT RightLeg
		{
			OFFSET -0 -43.585 2.33533
			CHANNELS 3 Yrotation Xrotation Zrotation
			JOINT RightFoot
			{
				OFFSET -0 -36.8654 -2.33533
				CHANNELS 3 Yrotation Xrotation Zrotation
				JOINT RightToeBase
				{
					OFFSET -0 -9.43469 9.49123
					CHANNELS 3 Yrotation Xrotation Zrotation
					End Site
					{
						OFFSET 0 0 5
					}
				}
			}
		}
	}
}
MOTION
Frames: 4
Frame Time: 0.0047619
-22.467787 94.831641 27.959314 -35.435892 4.792003 -12.046529 5.803910 0.298873 4.906059 4.729709 0.120815 3.662037 0.828570 0.273894 2.394184 -0.429162 0.197020 1.195590 30.792564 -8.318212 2.736714 13.962529 -16.858024 0.807194 20.860525 4.343415 20.023401 -35.369461 25.651558 -51.834063 -48.884368 7.011584 9.402138 40.972093 -33.539416 -42.491474 11.297975 -16.196627 -2.660567 13.136537 -18.569212 -3.365693 -70.071228 3.087054 -12.314239 -0.000000 -0.000003 12.499994 -0.000000 -0.000003 12.499994 -0.000000 -0.000002 9.999999 -0.000001 0.000002 5.000002 -0.000000 -0.000003 12.499994 -0.000000 -0.000003 12.499994 -0.000000 -0.000002 9.999999 -0.000001 0.000002 5.000002 -0.000091 -0.000065 3.687987 -0.000091 -0.000065 3.687987 -0.000056 -0.000060 2.950397 -0.000031 -0.000029 1.475193 -0.000137 -0.000107 -11.587705 -0.000137 -0.000107 -11.587705 -0.000104 -0.000065 -9.270160 -0.000066 -0.000022 -4.635079 -174.978950 -0.002688 -179.938682 0.971687 -3.332034 -4.073319 15.534515 -22.197921 -3.893998 30.882806 -7.028920 -20.373486 -113.594922 23.794378 64.838934 11.377013 -10.464473 -10.702085 13.278069 -11.836592 -12.510471 -30.350863 15.475541 1.588646 -0.000003 -0.000004 -12.499996 -0.000003 -0.000004 -12.499996 0.000000 0.000001 -10.000002 -0.000007 -0.000002 -4.999998 -0.000003 -0.000004 -12.499996 -0.000003 -0.000004 -12.499996 0.000000 0.000001 -10.000002 -0.000007 -0.000002 -4.999998 0.000043 0.000018 -11.487512 0.000043 0.000018 -11.487512 0.000047 0.000004 -9.190000 0.000014 0.000005 -4.595003 0.000441 0.000185 58.754838 0.000441 0.000185 58.754838 0.000065 0.000378 47.003883 -0.000116 0.000153 23.501933 11.297975 -16.196627 -2.660567 11.232742 -7.647995 2.100926 0.000000 9.291227 0.000000 0.253545 -5.434439 14.440807 0.000000 -5.509676 0.000000 111.072071 -63.336356 -150.655472 180.000000 60.630270 180.000000 -48.438056 -26.164290 -3.633246 0.000000 -19.226360 0.000000
-22.474115 94.827960 27.981201 -35.507368 4.784605 -12.032530 5.798285 0.294519 4.909703 4.723953 0.121973 3.672236 0.824246 0.280657 2.404497 -0.429686 0.186380 1.195000 30.814691 -8.334757 2.654799 13.943731 -16.834478 0.862745 20.893906 4.345840 19.989645 -35.384349 25.645507 -51.820238 -48.926097 7.028501 9.367158 41.089464 -33.523324 -42.512434 11.297975 -16.196627 -2.660567 13.136537 -18.569212 -3.365693 -70.071228 3.087054 -12.314239 -0.000000 -0.000003 12.499994 -0.000000 -0.000003 12.499994 -0.000000 -0.000002 9.999999 -0.000001 0.000002 5.000002 -0.000000 -0.000003 12.499994 -0.000000 -0.000003 12.499994 -0.000000 -0.000002 9.999999 -0.000001 0.000002 5.000002 -0.000091 -0.000065 3.687987 -0.000091 -0.000065 3.687987 -0.000056 -0.000060 2.950397 -0.000031 -0.000029 1.475193 -0.000137 -0.000107 -11.587705 -0.000137 -0.000107 -11.587705 -0.000104 -0.000065 -9.270160 -0.000066 -0.000022 -4.635079 -174.978950 -0.002688 -179.938682 0.954479 -3.327391 -4.106341 15.528406 -22.154620 -3.858743 31.042875 -7.122671 -20.366214 -113.650664 23.736970 64.779423 11.377013 -10.464473 -10.702085 13.278069 -11.836592 -12.510471 -30.350863 15.475541 1.588646 -0.000003 -0.000004 -12.499996 -0.000003 -0.000004 -12.499996 0.000000 0.000001 -10.000002 -0.000007 -0.000002 -4.999998 -0.000003 -0.000004 -12.499996 -0.000003 -0.000004 -12.499996 0.000000 0.000001 -10.000002 -0.000007 -0.000002 -4.999998 0.000043 0.000018 -11.487512 0.000043 0.000018 -11.487512 0.000047 0.000004 -9.190000 0.000014 0.000005 -4.595003 0.000441 0.000185 58.754838 0.000441 0.000185 58.754838 0.000065 0.000378 47.003883 -0.000116 0.000153 23.501933 11.297975 -16.196627 -2.660567 11.198365 -7.614818 2.083341 0.000000 9.271947 0.000000 0.355449 -5.452065 14.488251 0.000000 -5.503232 0.000000 111.117322 -63.434169 -150.700992 180.000000 60.604606 180.000000 -48.422819 -26.120526 -3.598433 0.000000 -19.267493 0.000000
-22.484981 94.822430 28.005109 -35.571390 4.779083 -12.019752 5.791094 0.300211 4.922529 4.717767 0.117435 3.675959 0.825912 0.257800 2.387592 -0.430002 0.183908 1.214403 30.837550 -8.331936 2.590993 13.932923 -16.820362 0.899469 20.931773 4.354059 19.969182 -35.433764 25.640519 -51.835158 -48.967147 7.030232 9.372702 41.049689 -33.469130 -42.539287 11.303320 -16.226128 -2.662232 13.143098 -18.602975 -3.368423 -70.160138 3.129524 -12.703147 0.000003 -0.000000 12.499993 0.000003 -0.000000 12.499993 0.000003 0.000003 10.000006 0.000003 0.000002 4.999997 0.000003 -0.000000 12.499993 0.000003 -0.000000 12.499993 0.000003 0.000003 10.000006 0.000003 0.000002 4.999997 0.000021 0.000031 3.526815 0.000021 0.000031 3.526815 0.000018 0.000019 2.821454 0.000011 0.000009 1.410724 -0.000031 -0.000033 -11.560714 -0.000031 -0.000033 -11.560714 -0.000036 -0.000016 -9.248570 -0.000017 -0.000009 -4.624284 -174.978960 -0.002688 -179.938682 0.931782 -3.315546 -4.117117 15.518740 -22.077895 -3.860214 31.161356 -7.199398 -20.329292 -113.627749 23.690136 64.567470 11.395784 -10.511797 -10.534939 13.298329 -11.893704 -12.319355 -30.211472 15.373691 1.492909 0.000004 -0.000003 -12.500001 0.000004 -0.000003 -12.500001 0.000000 0.000002 -9.999997 0.000009 -0.000006 -5.000002 0.000004 -0.000003 -12.500001 0.000004 -0.000003 -12.500001 0.000000 0.000002 -9.999997 0.000009 -0.000006 -5.000002 0.000017 0.000005 -11.412168 0.000017 0.000005 -11.412168 -0.000003 0.000008 -9.129734 -0.000000 0.000002 -4.564858 0.000070 0.000060 59.317584 0.000070 0.000060 59.317584 -0.000008 0.000059 47.454074 -0.000031 0.000030 23.727050 11.303320 -16.226128 -2.662232 11.196137 -7.583130 2.066312 0.000000 9.255031 0.000000 0.411476 -5.458123 14.546461 0.000000 -5.562866 0.000000 111.091631 -63.490925 -150.680073 180.000000 60.554479 180.000000 -48.387611 -25.976974 -3.517031 0.000000 -19.426624 0.000000
-22.490245 94.816626 28.027838 -35.632286 4.785066 -12.009753 5.769394 0.294118 4.941983 4.695150 0.101002 3.684947 0.844493 0.250623 2.391180 -0.416196 0.202124 1.183794 30.850184 -8.337733 2.544249 13.927896 -16.856675 0.917570 20.982087 4.372206 19.982972 -35.482965 25.568772 -51.837429 -48.951409 7.097676 9.370165 41.167666 -33.470047 -42.632848 11.303320 -16.226128 -2.662232 13.143098 -18.602975 -3.368423 -70.160138 3.129524 -12.703147 0.000003 -0.000000 12.499993 0.000003 -0.000000 12.499993 0.000003 0.000003 10.000006 0.000003 0.000002 4.999997 0.000003 -0.000000 12.499993 0.000003 -0.000000 12.499993 0.000003 0.000003 10.000006 0.000003 0.000002 4.999997 0.000021 0.000031 3.526815 0.000021 0.000031 3.526815 0.000018 0.000019 2.821454 0.000011 0.000009 1.410724 -0.000031 -0.000033 -11.560714 -0.000031 -0.000033 -11.560714 -0.000036 -0.000016 -9.248570 -0.000017 -0.000009 -4.624284 -174.978960 -0.002688 -179.938682 0.911763 -3.324446 -4.132572 15.478323 -22.045718 -3.803255 31.309212 -7.232668 -20.307554 -113.652350 23.644718 64.559850 11.395784 -10.511797 -10.534939 13.298329 -11.893704 -12.319355 -30.211472 15.373691 1.492909 0.000004 -0.000003 -12.500001 0.000004 -0.000003 -12.500001 0.000000 0.000002 -9.999997 0.000009 -0.000006 -5.000002 0.000004 -0.000003 -12.500001 0.000004 -0.000003 -12.500001 0.000000 0.000002 -9.999997 0.000009 -0.000006 -5.000002 0.000017 0.000005 -11.412168 0.000017 0.000005 -11.412168 -0.000003 0.000008 -9.129734 -0.000000 0.000002 -4.564858 0.000070 0.000060 59.317584 0.000070 0.000060 59.317584 -0.000008 0.000059 47.454074 -0.000031 0.000030 23.727050 11.303320 -16.226128 -2.662232 11.175941 -7.559523 2.052179 0.000000 9.220879 0.000000 0.485373 -5.480384 14.564647 0.000000 -5.601782 0.000000 111.096484 -63.583031 -150.701822 180.000000 60.534929 180.000000 -48.368506 -25.974149 -3.584752 0.000000 -19.416821 0.000000
